<svg id="brands-and-logotypes" xmlns="http://www.w3.org/2000/svg" width="20.17" height="20.17" viewBox="0 0 20.17 20.17">
  <g id="Group_45" data-name="Group 45">
    <g id="Group_44" data-name="Group 44">
      <path id="Path_42" data-name="Path 42" d="M13.867,0H6.3A6.3,6.3,0,0,0,0,6.3v7.564a6.3,6.3,0,0,0,6.3,6.3h7.564a6.3,6.3,0,0,0,6.3-6.3V6.3A6.3,6.3,0,0,0,13.867,0Zm4.412,13.867a4.417,4.417,0,0,1-4.412,4.412H6.3a4.417,4.417,0,0,1-4.412-4.412V6.3A4.417,4.417,0,0,1,6.3,1.891h7.564A4.417,4.417,0,0,1,18.279,6.3Z" fill="#fff"/>
    </g>
  </g>
  <g id="Group_47" data-name="Group 47" transform="translate(5.042 5.042)">
    <g id="Group_46" data-name="Group 46">
      <path id="Path_43" data-name="Path 43" d="M133.042,128a5.042,5.042,0,1,0,5.042,5.042A5.043,5.043,0,0,0,133.042,128Zm0,8.194a3.151,3.151,0,1,1,3.151-3.151A3.156,3.156,0,0,1,133.042,136.194Z" transform="translate(-128 -128)" fill="#fff"/>
    </g>
  </g>
  <g id="Group_49" data-name="Group 49" transform="translate(14.833 3.992)">
    <g id="Group_48" data-name="Group 48">
      <circle id="Ellipse_17" data-name="Ellipse 17" cx="0.672" cy="0.672" r="0.672" fill="#fff"/>
    </g>
  </g>
</svg>
