<svg id="XMLID_798_" xmlns="http://www.w3.org/2000/svg" width="16.144" height="18.39" viewBox="0 0 16.144 18.39">
  <path id="XMLID_799_" d="M47.231,1.884A8.412,8.412,0,0,0,41.722,0a9.2,9.2,0,0,0-6.387,2.2,6.2,6.2,0,0,0-2.153,4.516,4.178,4.178,0,0,0,2.558,4.2.933.933,0,0,0,.322.059.7.7,0,0,0,.7-.515c.054-.182.179-.631.234-.827a.722.722,0,0,0-.232-.839,2.5,2.5,0,0,1-.679-1.826c0-2.243,1.866-4.627,5.323-4.627,2.743,0,4.448,1.4,4.448,3.643a6.937,6.937,0,0,1-.961,3.7,2.845,2.845,0,0,1-2.35,1.472,1.638,1.638,0,0,1-1.239-.507,1.173,1.173,0,0,1-.25-1.108c.122-.463.289-.947.45-1.414a7.977,7.977,0,0,0,.573-2.3A1.761,1.761,0,0,0,40.2,3.99a2.746,2.746,0,0,0-2.548,2.958A4.006,4.006,0,0,0,38,8.6c-.18.683-1.25,4.742-1.453,5.508-.117.447-.824,3.976.346,4.258,1.314.316,2.489-3.121,2.609-3.51.1-.316.436-1.51.644-2.245a4.242,4.242,0,0,0,2.65.917,6.169,6.169,0,0,0,4.746-2.126,7.933,7.933,0,0,0,1.784-5.218A5.741,5.741,0,0,0,47.231,1.884Z" transform="translate(-33.181 0)" fill="#fff"/>
</svg>
